<svg xmlns="http://www.w3.org/2000/svg" xmlns:xlink="http://www.w3.org/1999/xlink" fill="none" viewBox="0 0 19 19" aria-hidden="true"><path fill="url(#paint0_linear_2771_24471)" d="M.27 7.683a1 1 0 0 1 .372-1.364L10.995.409a1 1 0 0 1 1.364.373l5.91 10.352a1 1 0 0 1-.373 1.365l-10.353 5.91a1 1 0 0 1-1.364-.373L.27 7.683Z"></path><path fill="url(#pattern-home-hero-btn-square-0)" fill-opacity=".6" d="M.27 7.683a1 1 0 0 1 .372-1.364L10.995.409a1 1 0 0 1 1.364.373l5.91 10.352a1 1 0 0 1-.373 1.365l-10.353 5.91a1 1 0 0 1-1.364-.373L.27 7.683Z"></path><defs><linearGradient id="paint0_linear_2771_24471" x1="24.297" x2="3.329" y1="7.113" y2="17.933" gradientUnits="userSpaceOnUse"><stop offset=".144" stop-color="#FFE9FE"></stop><stop offset="1" stop-color="#FF96F9"></stop></linearGradient><pattern id="pattern-home-hero-btn-square-0" width="5.08" height="5.08" patternContentUnits="objectBoundingBox"><use xlink:href="#svg-noise" transform="scale(.01016)"></use></pattern></defs></svg>