<svg viewBox="0 0 45 44" fill="none" xmlns="http://www.w3.org/2000/svg" xmlns:xlink="http://www.w3.org/1999/xlink" class="home-intro__flair-one" aria-hidden="true" style="translate: none; rotate: none; scale: none; transform-origin: 50% 50%; transform: translate(0px, 100px) rotate(-180deg) scale(0, 0);"><path fill-rule="evenodd" clip-rule="evenodd" d="M20.5723 0L28.5744 6.79816L21.9381 14.6098L29.5593 21.0843L36.1956 13.2726L44.1978 20.0708L37.3996 28.073L29.5879 21.4367L23.1135 29.0578L30.9252 35.6941L24.127 43.6963L16.1248 36.8981L22.7611 29.0864L15.14 22.612L8.50368 30.4237L0.501494 23.6255L7.29966 15.6233L15.1113 22.2596L21.5858 14.6385L13.7741 8.00218L20.5723 0Z" fill="url(#paint0_linear_1655_45313)"></path><path fill-rule="evenodd" clip-rule="evenodd" d="M20.5723 0L28.5744 6.79816L21.9381 14.6098L29.5593 21.0843L36.1956 13.2726L44.1978 20.0708L37.3996 28.073L29.5879 21.4367L23.1135 29.0578L30.9252 35.6941L24.127 43.6963L16.1248 36.8981L22.7611 29.0864L15.14 22.612L8.50368 30.4237L0.501494 23.6255L7.29966 15.6233L15.1113 22.2596L21.5858 14.6385L13.7741 8.00218L20.5723 0Z" fill="url(#pattern-home-intro-flair-1)" fill-opacity="0.6" style="mix-blend-mode:multiply"></path><defs><pattern id="pattern-home-intro-flair-1" patternContentUnits="objectBoundingBox" width="6.45161" height="6.45161"><use xlink:href="#svg-noise" transform="scale(0.0129032)"></use></pattern><linearGradient id="paint0_linear_1655_45313" x1="26.3176" y1="8.8195" x2="18.7715" y2="39.2342" gradientUnits="userSpaceOnUse"><stop offset="0.198661" stop-color="#F7BDF8"></stop><stop offset="1" stop-color="#2F3CC0"></stop></linearGradient></defs></svg>