<svg viewBox="0 0 185 208" fill="none" xmlns="http://www.w3.org/2000/svg" xmlns:xlink="http://www.w3.org/1999/xlink" class="home-intro__line-flower" aria-hidden="true"><path class="stem" d="M3.50195 161.887C12.7976 141.392 32.3752 123.415 54.857 124.66C74.6848 125.747 91.604 142.133 97.3981 161.124C102.428 177.606 96.9212 199.906 80.1131 203.506C63.3051 207.106 49.276 189.656 44.8852 173.034C38.2435 148.111 43.1529 120.5 57.9462 99.4357C72.7395 78.3717 97.0601 64.2721 122.724 62" stroke="#9D95FF" stroke-width="6.72106" stroke-miterlimit="10" stroke-linecap="round" style="stroke-dashoffset: 0.001; stroke-dasharray: 0px, 999999px;"></path><g class="flower" data-svg-origin="123 62" transform="matrix(0,0,0,0,123,62)" style="translate: none; rotate: none; scale: none; transform-origin: 0px 0px;"><path fill-rule="evenodd" clip-rule="evenodd" d="M104.184 54.2061L68.627 54.3435C64.41 54.3597 61 57.7829 61 62C61 66.2171 64.41 69.6403 68.627 69.6565L104.184 69.7939L79.1385 95.0335C76.1681 98.0269 76.1775 102.859 79.1594 105.841C82.1413 108.823 86.9731 108.832 89.9665 105.861L115.206 80.8161L115.343 116.373C115.36 120.59 118.783 124 123 124C127.217 124 130.64 120.59 130.657 116.373L130.794 80.8161L156.033 105.861C159.027 108.832 163.859 108.823 166.841 105.841C169.823 102.859 169.832 98.0269 166.861 95.0335L141.816 69.7939L177.373 69.6565C181.59 69.6403 185 66.2171 185 62C185 57.7829 181.59 54.3597 177.373 54.3435L141.816 54.2061L166.861 28.9665C169.832 25.9731 169.823 21.1413 166.841 18.1594C163.859 15.1775 159.027 15.1681 156.033 18.1385L130.794 43.1839L130.657 7.62704C130.64 3.40999 127.217 0 123 0C118.783 0 115.36 3.40998 115.343 7.62703L115.206 43.1839L89.9665 18.1385C86.9731 15.1681 82.1413 15.1775 79.1594 18.1594C76.1775 21.1413 76.1681 25.9731 79.1385 28.9665L104.184 54.2061Z" fill="white"></path><path fill-rule="evenodd" clip-rule="evenodd" d="M104.184 54.2061L68.627 54.3435C64.41 54.3597 61 57.7829 61 62C61 66.2171 64.41 69.6403 68.627 69.6565L104.184 69.7939L79.1385 95.0335C76.1681 98.0269 76.1775 102.859 79.1594 105.841C82.1413 108.823 86.9731 108.832 89.9665 105.861L115.206 80.8161L115.343 116.373C115.36 120.59 118.783 124 123 124C127.217 124 130.64 120.59 130.657 116.373L130.794 80.8161L156.033 105.861C159.027 108.832 163.859 108.823 166.841 105.841C169.823 102.859 169.832 98.0269 166.861 95.0335L141.816 69.7939L177.373 69.6565C181.59 69.6403 185 66.2171 185 62C185 57.7829 181.59 54.3597 177.373 54.3435L141.816 54.2061L166.861 28.9665C169.832 25.9731 169.823 21.1413 166.841 18.1594C163.859 15.1775 159.027 15.1681 156.033 18.1385L130.794 43.1839L130.657 7.62704C130.64 3.40999 127.217 0 123 0C118.783 0 115.36 3.40998 115.343 7.62703L115.206 43.1839L89.9665 18.1385C86.9731 15.1681 82.1413 15.1775 79.1594 18.1594C76.1775 21.1413 76.1681 25.9731 79.1385 28.9665L104.184 54.2061Z" fill="url(#paint0_radial_1987_36247)"></path><path fill-opacity=".6" fill-rule="evenodd" clip-rule="evenodd" d="M104.184 54.2061L68.627 54.3435C64.41 54.3597 61 57.7829 61 62C61 66.2171 64.41 69.6403 68.627 69.6565L104.184 69.7939L79.1385 95.0335C76.1681 98.0269 76.1775 102.859 79.1594 105.841C82.1413 108.823 86.9731 108.832 89.9665 105.861L115.206 80.8161L115.343 116.373C115.36 120.59 118.783 124 123 124C127.217 124 130.64 120.59 130.657 116.373L130.794 80.8161L156.033 105.861C159.027 108.832 163.859 108.823 166.841 105.841C169.823 102.859 169.832 98.0269 166.861 95.0335L141.816 69.7939L177.373 69.6565C181.59 69.6403 185 66.2171 185 62C185 57.7829 181.59 54.3597 177.373 54.3435L141.816 54.2061L166.861 28.9665C169.832 25.9731 169.823 21.1413 166.841 18.1594C163.859 15.1775 159.027 15.1681 156.033 18.1385L130.794 43.1839L130.657 7.62704C130.64 3.40999 127.217 0 123 0C118.783 0 115.36 3.40998 115.343 7.62703L115.206 43.1839L89.9665 18.1385C86.9731 15.1681 82.1413 15.1775 79.1594 18.1594C76.1775 21.1413 76.1681 25.9731 79.1385 28.9665L104.184 54.2061Z" fill="url(#pattern-home-intro-flair-0)" style="mix-blend-mode:multiply"></path></g><defs><pattern id="pattern-home-intro-flair-0" patternContentUnits="objectBoundingBox" width="0.806452" height="0.806452"><use xlink:href="#svg-noise" transform="scale(0.0016129)"></use></pattern><radialGradient id="paint0_radial_1987_36247" cx="0" cy="0" r="1" gradientUnits="userSpaceOnUse" gradientTransform="translate(99.1556 88.9263) rotate(-90) scale(97.6761)"><stop stop-color="#FFEBE7"></stop><stop offset="0.6721" stop-color="#FF9C7C"></stop><stop offset="0.8164" stop-color="#FF9983"></stop><stop offset="0.9014" stop-color="#FF774B"></stop><stop offset="1" stop-color="#E76F00"></stop></radialGradient></defs></svg>