<svg xmlns="http://www.w3.org/2000/svg" fill="currentColor" viewBox="0 0 223 140" aria-hidden="true"><path stroke="#FFFCE1" stroke-width="5" d="M215.725 0c0 142.962-208.252 144.087-208.252 0"></path><path stroke="#FFFCE1" stroke-dasharray="4 4" d="M8.024.704v137.333M215.15.704v137.333"></path><path fill="currentColor" stroke="#FFFCE1" stroke-miterlimit="10" d="M14.475 134.278c1.881-2.817.944-6.514-2.092-8.259-3.037-1.745-7.024-.876-8.905 1.941-1.88 2.817-.944 6.514 2.093 8.259s7.023.875 8.904-1.941ZM219.522 134.278c1.881-2.817.944-6.514-2.093-8.259s-7.023-.876-8.904 1.941c-1.881 2.817-.944 6.514 2.092 8.259 3.037 1.745 7.024.876 8.905-1.941Z"></path></svg>