<svg id="home-tools-text-te" viewBox="0 0 134 91" fill="currentColor" xmlns="http://www.w3.org/2000/svg" aria-hidden="true" style="translate: none; rotate: none; scale: none; transform-origin: 50% 50%; transform: rotateX(540deg);"><path d="M45.3424 88.5169L45.3424 14.1349L74.6177 14.1349V0.565247L0.864014 0.565247L0.864014 14.1349L30.265 14.1349L30.265 88.5169H45.3424Z" fill="currentColor"></path><path d="M102.875 90.4015C118.581 90.4015 129.763 81.732 133.156 67.4085H118.706C116.445 74.0677 110.665 77.837 103.001 77.837C91.6927 77.837 84.4053 69.9214 83.4001 58.2364L133.407 58.2364V54.7183C133.03 33.1073 120.465 19.9146 101.619 19.9146C83.0232 19.9146 68.574 33.4843 68.574 55.4722C68.574 75.8267 82.5206 90.4015 102.875 90.4015ZM84.0283 47.8078C86.29 38.2588 92.8235 32.4791 101.619 32.4791C110.288 32.4791 116.194 38.2588 118.078 47.8078L84.0283 47.8078Z" fill="currentColor"></path></svg>