<svg id="home-tools-text-xt" viewBox="0 0 113 90" fill="currentColor" xmlns="http://www.w3.org/2000/svg" aria-hidden="true"><path d="M16.7684 89.899L32.474 66.9059L48.054 89.899H64.7648L40.7666 56.603L64.3879 23.307L47.8027 23.307L32.474 45.5462L17.0197 23.307L0.434492 23.307L24.0558 56.603L0.0575562 89.899H16.7684Z" fill="currentColor"></path><path d="M111.358 89.899L111.358 77.3344H103.819C98.2905 77.3344 95.4006 74.1933 95.4006 68.5393V35.8715L112.614 35.8715L112.614 23.307L95.4006 23.307V0.565247L80.5745 0.565247V23.307L68.8895 23.307L68.8895 35.8715L80.5745 35.8715V69.5444C80.5745 82.7372 88.3645 89.899 102.814 89.899H111.358Z" fill="currentColor"></path></svg>