<svg xmlns="http://www.w3.org/2000/svg" viewBox="0 0 115 50" fill="currentColor" aria-label="Fox" style="translate: none; rotate: none; scale: none; transform: translate(200%, 0px); opacity: 0; visibility: hidden;"><path fill="currentColor" d="M114.126 49.266H98.589c-.142 0-.403-.627-.478-.757-2.137-3.858-4.274-7.734-6.398-11.586-2.274 4.1-4.485 8.268-6.753 12.374-5.087.013-10.132-.024-15.176-.012.572-1.068 1.18-2.112 1.79-3.162 4.242-7.33 8.423-14.76 12.672-22.096C79.73 16.137 75.146 8.31 70.604.44c-.012 0-.043-.05-.012-.044h15.61c1.92 3.491 3.79 7.026 5.678 10.542C93.844 7.453 95.738 3.9 97.683.396h15.089c.012.062-.031.13-.063.18-4.404 7.74-8.914 15.506-13.312 23.258 4.889 8.486 9.871 16.965 14.729 25.432Z"></path><path fill="currentColor" d="M76.406 19.362c.398 1.615.628 3.391.628 5.261 0 5.833-1.69 10.157-4.038 13.673a25.09 25.09 0 0 1-1.236 1.715 22.157 22.157 0 0 1-4.535 4.31c-1.155.82-2.36 1.566-3.696 2.194-2.659 1.248-5.87 2.223-9.573 2.223-5.79 0-10.064-1.764-13.524-4.187-3.46-2.428-6.156-5.64-7.988-9.69-1.23-2.715-2.038-5.846-2.131-9.66-.044-1.889.193-3.752.534-5.367.87-4.075 2.578-7.268 4.74-10.02 2.162-2.746 4.901-4.895 8.212-6.517a21.843 21.843 0 0 1 4.336-1.565 21.741 21.741 0 0 1 5.23-.659h.032c1.851-.087 3.814.211 5.355.553 1.602.354 3.087.895 4.41 1.491 4.1 1.851 7.157 4.622 9.617 8.082 1.62 2.267 2.839 4.988 3.627 8.163ZM57.77 35.55c.15-.596.106-1.36.106-2.15V15.449c0-.77-.087-1.367-.31-1.926a4.185 4.185 0 0 0-.895-1.354c-.727-.74-1.82-1.404-3.193-1.298-.665.05-1.218.26-1.702.565a4.195 4.195 0 0 0-1.864 2.61c-.143.59-.137 1.34-.137 2.117v17.953c0 .385-.018.758.031 1.087.13.945.553 1.702 1.106 2.268.715.727 1.82 1.335 3.25 1.18 1.844-.199 3.198-1.422 3.608-3.1ZM30.946 13.727H14.442c-.068 2.05-.012 4.318-.031 6.38 4.46.037 8.989.006 13.48.012v13.375c-4.522.013-9.082-.019-13.58.013.007 5.305.032 10.51.032 15.815 0 .019-.007.025-.013.031H.57c-.024.007-.024-.012-.043-.012C.495 33.053.495 16.659.52.365c0-.019 0-.043.012-.043H30.01c.018 0 .024 0 .03.012.311 4.46.61 8.927.907 13.393Z"></path></svg>