<svg viewBox="0 0 149 45" fill="none" xmlns="http://www.w3.org/2000/svg" aria-label="Amazon" style="translate: none; rotate: none; scale: none; transform: translate(0px, 0px); opacity: 1; visibility: inherit;"><g clip-path="url(#clip0_2_71)"><path d="M92.4148 35.1594C83.7663 41.5385 71.2385 44.9506 60.4403 44.9506C45.3179 44.9506 31.6781 39.338 21.3741 30.0412C20.5587 29.2995 21.3 28.3105 22.2637 28.8792C33.3831 35.3572 47.1464 39.239 61.3546 39.239C70.942 39.239 81.4683 37.261 91.1546 33.1319C92.6124 32.5138 93.8479 34.0962 92.4148 35.1594Z" fill="#FFFBE3"></path><path d="M96.0223 31.0302C94.9104 29.6209 88.7082 30.3627 85.9407 30.6841C85.1006 30.783 84.9523 30.0412 85.7183 29.522C90.6603 26.0357 98.7651 27.0495 99.7288 28.2116C100.668 29.3736 99.4817 37.5083 94.8362 41.4149C94.1196 42.0083 93.4525 41.6868 93.749 40.8956C94.7868 38.2995 97.1095 32.4643 96.0223 31.0302Z" fill="#FFFBE3"></path><path d="M85.9901 4.94509V1.60718C85.9901 1.08794 86.3855 0.741791 86.855 0.741791H102.126C102.126 0.741791 102.99 1.06322 103.065 1.58245V4.47531C102.99 4.96981 102.595 5.58795 101.879 6.60168L93.9961 17.8022C96.9118 17.7281 100.001 18.1731 102.62 19.6566C103.213 20.0028 103.509 20.9671 103.509 20.9671V24.7253C103.509 25.2198 102.966 25.7885 102.397 25.4918C97.7026 23.044 91.5004 22.772 86.3114 25.5165C85.7924 25.8132 85.2241 25.2198 85.2241 24.75V21.3132C85.2241 20.7693 85.2241 19.8297 85.7925 18.989L94.9351 5.95882H86.9785C86.4843 5.95882 86.1137 5.61267 86.1137 5.11816" fill="#FFFBE3"></path><path d="M30.8873 25.9616H26.2666C25.8218 25.9368 25.4759 25.5907 25.4512 25.1704V1.58244C25.4512 1.11266 25.8465 0.741777 26.316 0.741777H30.5414C30.9862 0.766503 31.3321 1.11266 31.3568 1.53299V4.69782H31.4309C32.5429 1.70606 34.6432 0.296722 37.4848 0.296722C40.3759 0.296722 42.155 1.70606 43.4646 4.69782C44.5765 1.70606 47.0969 0.296722 49.815 0.296722C51.7424 0.296722 53.8427 1.08793 55.1523 2.89288C56.6102 4.89562 56.3137 7.78848 56.3137 10.3352V25.3434C56.3137 25.8132 55.9183 26.2088 55.4241 26.2088H50.9517C50.5069 26.1841 50.1362 25.8132 50.1362 25.3434V12.8077C50.1362 11.8187 50.2351 9.32145 50.0127 8.38189C49.6668 6.79947 48.6537 6.35441 47.344 6.35441C46.2568 6.35441 45.0955 7.09617 44.626 8.28299C44.1565 9.4698 44.2059 11.4725 44.2059 12.8077V25.3434C44.2059 25.8132 43.8105 26.2088 43.3411 26.2088H38.5968C38.1273 26.1841 37.7814 25.8132 37.7814 25.3434V12.8077C37.7814 10.1621 38.2014 6.28024 34.9892 6.28024C31.7275 6.28024 31.851 10.0632 31.851 12.8077V25.2198C31.851 25.6896 31.4557 26.0852 30.9615 26.0852" fill="#FFFBE3"></path><path d="M116.013 0.296722C122.857 0.296722 126.539 6.18134 126.539 13.6484C126.539 20.8681 122.462 26.5797 116.013 26.5797C109.292 26.5797 105.659 20.6951 105.659 13.3764C105.659 6.00826 109.341 0.296722 116.013 0.296722ZM116.062 5.11815C112.677 5.11815 112.454 9.74178 112.454 12.6346C112.454 15.5275 112.405 21.7088 116.013 21.7088C119.571 21.7088 119.744 16.739 119.744 13.6978C119.744 11.6951 119.67 9.32145 119.052 7.4176C118.558 5.76101 117.52 5.11815 116.062 5.11815Z" fill="#FFFBE3"></path><path d="M135.41 25.9616H130.789C130.344 25.9368 129.974 25.566 129.974 25.0962V1.50826C130.023 1.06321 130.394 0.741777 130.863 0.741777H135.113C135.509 0.766502 135.83 1.03848 135.929 1.40936V4.94507H136.003C137.288 1.70606 139.067 0.173096 142.23 0.173096C144.281 0.173096 146.282 0.914854 147.567 2.96705C148.753 4.8709 148.753 8.03573 148.753 10.3352V25.2198C148.704 25.6401 148.333 25.9616 147.864 25.9616H143.366C142.946 25.9368 142.6 25.6154 142.551 25.2198V12.3627C142.551 9.7665 142.847 5.98354 139.709 5.98354C138.597 5.98354 137.584 6.72529 137.09 7.88738C136.448 9.32145 136.373 10.7802 136.373 12.3627V25.2198C136.373 25.6896 135.953 26.0852 135.484 26.0852" fill="#FFFBE3"></path><path d="M73.2647 14.8352V13.772C69.9289 13.772 66.4201 14.489 66.4201 18.4203C66.4201 20.3984 67.4579 21.7583 69.2123 21.7583C70.4972 21.7583 71.6585 20.9671 72.3998 19.6566C73.3141 18.0742 73.2647 16.566 73.2647 14.761M77.8854 25.9368C77.5889 26.2088 77.1441 26.2335 76.7982 26.0357C75.2909 24.7747 75.0191 24.1813 74.1789 22.9945C71.6586 25.566 69.8794 26.3324 66.6425 26.3324C62.7877 26.3324 59.7979 23.9588 59.7979 19.1868C59.7979 15.478 61.8241 12.9313 64.6657 11.6951C67.1614 10.6072 70.6207 10.4094 73.2647 10.1127V9.51925C73.2647 8.43134 73.3388 7.14562 72.7211 6.20606C72.1527 5.3654 71.0902 5.01925 70.1512 5.01925C68.3969 5.01925 66.8401 5.90936 66.4695 7.76375C66.3954 8.18408 66.0988 8.57969 65.6788 8.60441L61.231 8.13463C60.8604 8.06046 60.4403 7.73903 60.5391 7.17035C61.5522 1.78024 66.4201 0.173096 70.769 0.173096C72.9929 0.173096 75.9086 0.766502 77.663 2.44782C79.8869 4.52474 79.6892 7.29397 79.6892 10.3352V17.4808C79.6892 19.6319 80.5788 20.5714 81.4189 21.7335C81.7154 22.1539 81.7896 22.6484 81.3942 22.9451C80.4799 23.6868 78.7997 25.1209 77.8854 25.9368Z" fill="#FFFBE3"></path><path d="M13.5905 14.8352V13.772C10.2547 13.772 6.74588 14.489 6.74588 18.4204C6.74588 20.3984 7.78369 21.7583 9.53808 21.7583C10.823 21.7583 11.9844 20.9671 12.7256 19.6566C13.6399 18.0742 13.5905 16.566 13.5905 14.7857M18.2112 25.9368C17.9147 26.2088 17.4699 26.2335 17.124 26.0357C15.6167 24.7748 15.3449 24.1813 14.5048 22.9945C11.9844 25.566 10.2052 26.3324 6.96827 26.3324C3.11354 26.3324 0.123657 23.9588 0.123657 19.1868C0.123657 15.478 2.14986 12.9313 4.99148 11.6951C7.48717 10.6072 10.9465 10.4094 13.5905 10.1127V9.51926C13.5905 8.43134 13.6646 7.14563 13.0469 6.20607C12.4785 5.36541 11.416 5.01926 10.4771 5.01926C8.72266 5.01926 7.16595 5.90937 6.7953 7.76376C6.72117 8.18409 6.42465 8.5797 6.00459 8.60442L1.55682 8.13464C1.18618 8.06047 0.766112 7.73904 0.864951 7.17035C1.90276 1.75552 6.74588 0.148376 11.0948 0.148376C13.3187 0.148376 16.2344 0.741783 17.9888 2.4231C20.2127 4.50002 20.015 7.26926 20.015 10.3105V17.4561C20.015 19.6072 20.9046 20.5467 21.7447 21.7088C22.0412 22.1291 22.1154 22.6237 21.72 22.9204C20.8057 23.6868 19.1255 25.1209 18.2112 25.9368Z" fill="#FFFBE3"></path></g><defs><clipPath id="clip0_2_71"><rect width="149" height="45" fill="white"></rect></clipPath></defs></svg>