<svg viewBox="0 0 213 37" fill="currentColor" xmlns="http://www.w3.org/2000/svg" aria-label="Moooi" style="translate: none; rotate: none; scale: none; transform: translate(0px, -200%); opacity: 0; visibility: hidden;"><path d="M0.986206 17.5283C1.02856 17.6977 1.07091 17.8883 1.09209 18.0578C1.07091 18.0578 1.07091 18.0578 1.04974 18.0366C1.1768 17.2954 1.26151 16.5542 1.47328 15.8342C2.21447 13.0812 3.86628 11.0058 6.4287 9.71401C8.14404 8.84575 10.0076 8.61281 11.9347 8.8034C13.6289 8.97281 15.1748 9.54459 16.509 10.5823C17.356 11.2388 18.0125 12.0647 18.4572 13.0388C18.5208 13.1659 18.5631 13.2717 18.6267 13.3988C18.6478 13.42 18.669 13.4412 18.6902 13.4412C18.9867 12.9117 19.262 12.3611 19.6008 11.8529C20.342 10.794 21.3797 10.0952 22.5444 9.56577C24.1962 8.82458 25.9327 8.63398 27.7116 8.78222C31.6929 9.12105 34.9118 11.9799 35.9495 15.9824C36.2248 17.0413 36.3518 18.1001 36.3518 19.1801C36.3518 24.305 36.3518 29.4298 36.3518 34.5547C36.3518 34.9147 36.373 35.2535 36.373 35.6135C36.373 35.7829 36.3306 35.8676 36.1401 35.8676C34.4035 35.8676 32.6458 35.8676 30.9093 35.8464C30.7611 35.8464 30.6764 35.8041 30.6764 35.6347C30.6764 30.5522 30.6764 25.4697 30.6764 20.3661C30.6764 19.519 30.6976 18.6719 30.507 17.8248C30.0411 15.7283 28.2834 14.3518 26.1233 14.4365C25.6574 14.4577 25.1704 14.5212 24.7256 14.6271C23.2856 15.0083 22.4173 16.0036 21.9303 17.3589C21.6338 18.206 21.5279 19.0743 21.5279 19.9425C21.5279 25.1521 21.5279 30.3404 21.5491 35.55C21.5491 35.8041 21.4644 35.8464 21.2526 35.8464C19.5584 35.8464 17.8643 35.8464 16.1701 35.8464C16.0642 35.8464 15.9372 35.8464 15.7889 35.8464C15.7889 35.7406 15.7889 35.6347 15.7889 35.55C15.7889 30.2345 15.7889 24.9403 15.7889 19.6249C15.7889 18.5448 15.5983 17.5072 15.0689 16.5542C14.2854 15.1777 13.0995 14.5 11.5324 14.4365C10.8971 14.4153 10.2406 14.3941 9.62643 14.6271C8.03815 15.22 7.14872 16.4059 6.80989 18.0366C6.72518 18.4178 6.704 18.8413 6.704 19.2437C6.704 24.6438 6.704 30.044 6.704 35.4441C6.704 35.8465 6.704 35.8464 6.30164 35.8464C4.62865 35.8464 2.97685 35.8253 1.30386 35.8253C1.19798 35.8253 1.09209 35.8041 0.986206 35.8041C0.986206 29.7475 0.986206 23.6485 0.986206 17.5283Z" fill="currentColor"></path><path d="M205.98 0.375031C206.043 0.417385 206.107 0.459739 206.17 0.480916C207.505 0.798571 208.457 1.81507 208.669 3.1704C208.881 4.52573 208.182 5.85988 206.933 6.47402C205.726 7.08815 204.201 6.81284 203.206 5.88106C201.427 4.18689 202.231 1.26447 204.476 0.544451C204.646 0.480919 204.836 0.417385 205.006 0.375031C205.344 0.375031 205.662 0.375031 205.98 0.375031Z" fill="currentColor"></path><path d="M181.838 20.7685C181.584 18.7566 180.843 16.9142 179.763 15.1989C178.301 12.8906 176.311 11.1965 173.812 10.0952C172.181 9.37523 170.466 8.93051 168.666 8.82463C166.527 8.69757 164.43 8.86698 162.376 9.52347C159.877 10.3282 157.717 11.6835 156.044 13.6953C153.291 17.0201 152.127 20.832 152.952 25.1309C153.757 29.3663 156.066 32.6064 159.835 34.7665C161.339 35.6136 162.969 36.1218 164.685 36.3971C166.908 36.7571 169.132 36.6724 171.313 36.1218C174.341 35.3594 176.883 33.8559 178.852 31.4205C180.885 28.9004 181.901 25.9992 181.986 22.5897C181.944 22.0814 181.923 21.4249 181.838 20.7685ZM167.395 31.2511C162.207 31.2934 158.713 27.291 158.713 22.6956C158.713 18.1425 162.164 14.2248 167.078 14.1401C172.393 14.0342 175.93 18.0366 175.93 22.6744C175.951 27.5451 172.245 31.2511 167.395 31.2511Z" fill="currentColor"></path><path d="M133.576 18.9896C132.601 15.7284 130.759 13.0813 127.9 11.1965C125.359 9.52351 122.521 8.73997 119.281 8.78232C117.312 8.73997 115.257 9.09998 113.309 9.96823C108.184 12.2554 105.347 16.2366 104.881 21.785C104.563 25.3639 105.685 28.6252 107.951 31.4206C110.175 34.1736 113.14 35.7618 116.592 36.376C118.519 36.7148 120.467 36.7148 122.394 36.3336C127.011 35.4654 130.462 33.03 132.601 28.837C133.512 27.0369 134.02 25.131 134.063 23.098C134.084 21.7215 133.978 20.345 133.576 18.9896ZM119.493 31.2511C114.304 31.2723 110.789 27.2699 110.853 22.4839C110.916 18.0579 114.347 14.0978 119.472 14.1189C124.3 14.1189 127.985 17.8037 128.048 22.5897C128.112 27.3969 124.3 31.3147 119.493 31.2511Z" fill="currentColor"></path><path d="M85.6518 18.8626C84.6565 15.5166 82.7082 12.8483 79.7222 10.9847C77.2233 9.43878 74.4703 8.73994 71.8444 8.76112C70.0867 8.76112 68.6678 8.95171 67.2913 9.31172C63.9242 10.2223 61.1923 12.0647 59.2864 14.966C57.2534 18.0367 56.491 21.4461 57.1899 25.1098C57.8675 28.7099 59.6676 31.6535 62.6535 33.8347C64.7712 35.3806 67.1854 36.2065 69.7902 36.4818C72.2891 36.736 74.7033 36.503 77.0751 35.6347C82.2423 33.7712 85.7153 29.1758 86.1812 23.6062C86.3294 21.9968 86.1177 20.4296 85.6518 18.8626ZM71.3996 31.2299C66.4442 31.1452 62.8653 27.3969 62.9712 22.3991C63.0771 17.719 66.8678 14.0342 71.5479 14.1189C76.5668 14.0554 80.2516 17.9731 80.1669 22.8015C80.1246 27.7146 76.3339 31.3358 71.3996 31.2299Z" fill="currentColor"></path><path d="M202.613 35.9524C202.613 27.4604 202.613 18.9896 202.613 10.4976C202.803 10.4976 202.973 10.4976 203.163 10.4976C204.794 10.4976 206.446 10.4976 208.076 10.4976C208.331 10.4976 208.394 10.5612 208.394 10.8153C208.394 16.4484 208.394 22.0603 208.394 27.6934C208.394 30.3405 208.394 32.9664 208.394 35.6136C208.394 35.9736 208.394 35.9736 208.013 35.9736C206.255 35.9736 204.498 35.9736 202.761 35.9736C202.698 35.9524 202.655 35.9524 202.613 35.9524Z" fill="currentColor"></path><path d="M211.338 10.4341C210.681 10.4341 210.152 10.9635 210.152 11.62C210.152 12.2977 210.681 12.8059 211.359 12.8059C212.015 12.8059 212.523 12.2765 212.523 11.5988C212.545 11.0059 211.973 10.4553 211.338 10.4341ZM211.338 12.5941C210.808 12.5941 210.363 12.1706 210.363 11.6624C210.363 11.0906 210.766 10.7094 211.359 10.7094C211.909 10.7094 212.291 11.1118 212.291 11.6624C212.291 12.1918 211.909 12.5941 211.338 12.5941Z" fill="currentColor"></path><path d="M211.422 11.9588C211.57 11.9376 211.698 11.9165 211.888 11.8953C211.676 12.1494 211.38 12.2553 211.147 12.1494C210.935 12.0435 210.808 11.8741 210.808 11.62C210.808 11.387 210.978 11.1753 211.232 11.1117C211.507 11.0482 211.74 11.1541 211.909 11.4294C211.74 11.387 211.634 11.3659 211.507 11.3447C211.232 11.2812 211.062 11.4082 211.062 11.6412C211.041 11.8529 211.189 11.98 211.422 11.9588Z" fill="currentColor"></path></svg>