<svg viewBox="0 0 152 61" fill="currentColor" xmlns="http://www.w3.org/2000/svg" aria-label="Netlify" style="translate: none; rotate: none; scale: none; transform: translate(0px, 0px); opacity: 1; visibility: inherit;"><path d="M35.3654 60.6776V45.3177L35.6878 44.9952H38.8829L39.2053 45.3177V60.6776L38.8829 61H35.6878L35.3654 60.6776Z" fill="currentColor"></path><path d="M35.3654 15.6824V0.322441L35.6878 0H38.8829L39.2053 0.322441V15.6824L38.8829 16.0048H35.6878L35.3654 15.6824Z" fill="currentColor"></path><path d="M21.4711 49.5974H21.0314L18.7743 47.3403V46.9006L24.0506 41.6243H26.4543L26.7474 41.9174V44.321L21.4711 49.5974Z" fill="currentColor"></path><path d="M21.4418 11.4027H21.0021L18.745 13.6598V14.0995L24.0213 19.3758H26.425L26.7474 19.0534V16.6497L21.4418 11.4027Z" fill="currentColor"></path><path d="M1.27459 28.58H23.054L23.3765 28.9024V32.0975L23.054 32.4199H1.27459L0.952148 32.0975V28.9024L1.27459 28.58Z" fill="currentColor"></path><path d="M130.222 28.58H150.711L151.034 28.9024V32.0975L150.711 32.4199H128.932L128.609 32.0975L129.899 28.9024L130.222 28.58Z" fill="currentColor"></path><path d="M63.1246 31.863L62.8022 32.1855H52.8651L52.5427 32.5079C52.5427 33.1528 53.1876 35.0581 55.7378 35.0581C56.7051 35.0581 57.6724 34.7357 57.9655 34.0908L58.288 33.7684H62.128L62.4504 34.0908C62.128 36.0254 60.5158 38.8981 55.7085 38.8981C50.2563 38.8981 47.7061 35.0581 47.7061 30.5733C47.7061 26.0884 50.2563 22.2484 55.386 22.2484C60.5158 22.2484 63.066 26.0884 63.066 30.5733V31.863H63.1246ZM58.3173 28.6679C58.3173 28.3455 57.9949 26.1177 55.4446 26.1177C52.8944 26.1177 52.572 28.3455 52.572 28.6679L52.8944 28.9904H58.0242L58.3173 28.6679Z" fill="currentColor"></path><path d="M72.0943 33.7977C72.0943 34.4426 72.4168 34.765 73.0617 34.765H75.9343L76.2568 35.0875V38.2826L75.9343 38.605H73.0617C70.189 38.605 67.6095 37.3152 67.6095 33.7977V26.7626L67.287 26.4402H65.0593L64.7368 26.1177V22.8933L65.0593 22.5709H67.287L67.6095 22.2484V19.3758L67.9319 19.0533H71.7719L72.0943 19.3758V22.2484L72.4168 22.5709H75.9343L76.2568 22.8933V26.0884L75.9343 26.4109H72.4168L72.0943 26.7333V33.7977Z" fill="currentColor"></path><path d="M83.9368 38.605H80.0969L79.7744 38.2825V16.5031L80.0969 16.1807H83.9368L84.2593 16.5031V38.2825L83.9368 38.605Z" fill="currentColor"></path><path d="M92.5841 20.0206H88.7441L88.4216 19.6982V16.5031L88.7441 16.1807H92.5841L92.9065 16.5031V19.6982L92.5841 20.0206ZM92.5841 38.605H88.7441L88.4216 38.2825V22.8933L88.7441 22.5709H92.5841L92.9065 22.8933V38.2825L92.5841 38.605Z" fill="currentColor"></path><path d="M107.651 16.5031V19.6982L107.328 20.0207H104.426C103.782 20.0207 103.459 20.3431 103.459 20.988V22.2777L103.782 22.6002H106.977L107.299 22.9226V26.1177L106.977 26.4402H103.782L103.459 26.7626V38.2826L103.137 38.605H99.2967L98.9742 38.2826V26.7333L98.6518 26.4109H96.424L96.1016 26.0884V22.8933L96.424 22.5709H98.6518L98.9742 22.2484V20.9587C98.9742 17.4411 101.524 16.1514 104.426 16.1514H107.299L107.651 16.5031Z" fill="currentColor"></path><path d="M119.493 38.9275C118.203 42.1226 116.943 44.0572 112.458 44.0572H110.846L110.523 43.7348V40.5397L110.846 40.2172H112.458C114.07 40.2172 114.393 39.8948 114.715 38.9275V38.605L109.585 26.1178V22.8934L109.908 22.5709H112.781L113.103 22.8934L116.943 33.7977H117.265L121.105 22.8934L121.428 22.5709H124.3L124.623 22.8934V26.0885L119.493 38.9275Z" fill="currentColor"></path><path d="M40.671 38.605L40.3485 38.2826V28.9904C40.3485 27.3782 39.733 26.1471 37.7983 26.1178C36.8017 26.0885 35.6585 26.1178 34.4567 26.1764L34.2808 26.3523V38.2826L33.9583 38.605H30.089L29.7666 38.2826V22.7468L30.089 22.4244L38.7363 22.3364C43.0746 22.3364 44.8334 25.3263 44.8334 28.668V38.2826L44.511 38.605H40.671Z" fill="currentColor"></path></svg>