<svg viewBox="0 0 165 53" fill="none" xmlns="http://www.w3.org/2000/svg" aria-label="Coca Cola" style="translate: none; rotate: none; scale: none; transform: translate(-200%, 0px); opacity: 0; visibility: hidden;"><g clip-path="url(#clip0_2_33)"><path d="M63.4521 46.2376C57.3431 42.3524 49.0611 41.6846 35.7156 45.327C21.4681 48.6253 16.7326 50.75 10.5006 46.5006C8.10212 44.4164 7.24112 41.0573 7.87662 36.2211C9.37312 28.3294 13.3911 20.721 20.5251 12.3031C24.5021 7.9121 28.2126 4.14836 33.0916 2.65095C36.8226 1.6999 36.4741 4.61377 36.0231 5.01847C35.5516 5.01847 34.7521 5.09941 34.1166 5.48388C33.6041 5.86835 32.2306 7.12293 32.1486 8.78222C32.0461 11.3521 34.7316 10.8057 35.8796 9.40951C37.1301 7.83116 38.9751 4.79588 37.5196 1.96296C36.9046 0.951197 35.8591 0.263201 34.5471 0.0203785C30.0781 -0.222444 25.9166 1.86178 22.0831 4.18883C13.6781 9.95586 6.95412 17.9285 3.16162 26.6701C0.968118 31.9515 -1.02038 39.4992 1.95212 45.6305C4.24812 49.9001 9.02462 52.1665 14.7236 51.6808C18.7211 51.2761 23.5386 50.0013 26.7981 49.2324C30.0371 48.4634 46.6831 42.8178 52.1361 52.6319C52.1361 52.6319 53.9606 49.1514 58.4911 49.0705C62.2221 48.7265 67.6136 50.1429 71.5291 52.9759C70.2581 51.0738 66.5476 48.2004 63.4521 46.2376Z" fill="#FFFBE3"></path><path d="M37.4171 13.2946C34.3011 11.2711 28.0486 15.1361 23.0466 21.7327C18.4751 27.6616 16.4866 34.5416 18.6391 37.7185C21.8371 41.462 27.7821 36.0188 30.3036 33.1049L30.6316 32.7609C32.3536 30.9397 33.6861 28.7543 34.9571 26.6499C34.9571 26.6499 36.1461 24.7275 36.1871 24.6264C36.9251 24.4847 37.7861 24.2824 38.7906 23.9991C38.7701 24.0395 34.9981 30.3124 35.3876 33.4084C35.5106 34.3595 35.4081 37.8197 38.8521 38.8719C43.4236 39.6206 47.0726 36.1402 50.2911 33.024C50.2911 33.024 50.8446 32.4978 51.1521 32.2146C51.0701 32.5181 50.9676 32.943 50.9676 32.943C49.6351 37.5364 51.4391 38.4875 52.5666 38.8517C55.9696 39.823 60.0491 34.9463 60.0491 34.9463C59.9466 36.4842 59.6391 37.759 61.2791 38.791C62.8371 39.3373 64.3951 38.5077 65.6046 37.7185C69.9096 34.7237 73.3741 30.0494 76.1621 26.0023H74.3786C74.3581 26.0023 69.9711 32.2753 67.1216 33.631C67.1216 33.631 66.6091 33.8941 66.3016 33.6917C65.9326 33.3882 66.0761 32.7407 66.3016 32.2753C66.3221 32.255 77.2896 13.4565 77.2896 13.4565H72.1031C72.1031 13.4565 71.5291 14.3671 71.4881 14.4278C71.4471 14.4076 71.3651 14.2457 71.3036 14.1648C68.0851 9.77373 60.8281 16.5323 55.3546 24.3431C53.2431 27.3581 50.5576 30.7374 47.7901 33.1858C47.7901 33.1858 43.6696 36.9091 41.9066 34.2381C41.2711 33.1049 41.4556 31.4658 41.8246 30.3934C43.8746 24.6264 47.4006 19.4057 51.4186 16.249C52.5461 15.3789 53.7966 15.1158 54.3911 15.5003C54.9651 15.8443 55.0676 16.6942 54.6986 17.2607C53.7556 17.2405 53.0176 17.5036 52.4026 18.1309C51.1931 19.3652 50.7831 20.5793 51.1726 21.6923C53.0381 24.3026 56.7281 19.1426 56.5436 16.0062C56.4821 14.873 55.8671 13.8208 54.9651 13.2946C53.6121 12.4852 51.5416 12.7078 50.2091 13.3351C48.4256 14.0029 45.5966 16.3299 43.9361 18.1309C41.8656 20.3972 38.2781 22.9064 37.1711 22.6231C37.5606 21.6518 40.5741 15.561 37.4171 13.2946ZM62.3861 22.2993C63.3906 20.9233 66.3221 17.2405 67.0396 16.6132C69.4381 14.529 70.4016 15.4396 70.4836 16.0871C68.2286 20.0532 65.5841 24.6061 63.1036 28.6936C63.1036 28.6734 62.3246 29.8673 62.3246 29.8673C61.2176 31.5266 60.1106 32.943 58.3066 33.9345C58.0401 34.0155 57.6301 34.0357 57.3431 33.8334C56.9946 33.6108 56.8716 33.2465 56.9126 32.8621C57.0151 31.5873 58.3271 27.6819 62.3861 22.2993ZM34.1986 24.6871C34.1986 24.6871 34.1576 24.8287 34.1371 24.8692L31.8821 28.4913C30.5291 30.2922 28.8276 32.5383 26.6956 33.6108C26.0601 33.8131 25.1991 33.9548 24.7481 33.4084C23.8051 32.2955 24.2971 30.7576 24.6866 29.5233L24.8301 29.0781C25.9576 26.0631 27.7411 23.392 29.4836 20.9233C29.5041 20.9031 29.5451 20.9031 29.5656 20.9031C29.5656 20.9233 29.5861 20.9233 29.5861 20.9436C30.6726 23.0075 32.7226 23.9788 34.2601 24.424C34.2601 24.424 34.2806 24.4442 34.2806 24.4645C34.2806 24.4847 34.2601 24.5454 34.1986 24.6871ZM36.3306 20.3972C36.3306 20.4174 35.3261 22.6838 35.3261 22.6838C35.1826 22.8052 34.9571 22.7445 34.6906 22.6838L34.2396 22.6028C32.8456 22.1779 31.7796 21.2471 31.4516 20.1544C31.0211 18.0297 32.8661 16.3502 33.6861 15.7431C34.4651 15.217 35.6746 14.9337 36.3921 15.48C36.8226 15.9859 36.9866 16.6335 36.9866 17.3417C36.9866 18.313 36.6791 19.3854 36.3306 20.3972Z" fill="#FFFBE3"></path><path d="M101.849 27.2772C101.357 26.2047 100.168 25.537 98.8966 25.5977C94.7966 25.9619 90.7786 29.3007 88.6671 34.0762C87.5601 36.5247 86.9656 38.5684 86.5556 41.7858C87.8266 40.3289 90.4301 37.9411 93.3821 36.6461C93.3821 36.6461 93.7921 33.5501 95.8421 30.7981C96.6211 29.6649 98.1791 27.8235 99.9216 28.3092C101.439 28.8151 100.906 32.9835 98.8761 37.0103C97.3796 39.9646 95.0836 42.9392 92.7671 44.983C90.7171 46.703 87.6831 48.7669 85.0386 47.1684C83.3576 46.1971 82.5171 44.1533 82.7016 41.5025C83.5011 34.0155 86.9451 27.6616 91.8856 20.3972C96.9696 13.6589 102.587 6.73846 110.151 3.05566C111.689 2.28672 113.124 2.1046 114.354 2.59025C114.354 2.59025 107.261 6.43493 103.878 13.5577C103.017 15.3587 101.828 17.8071 103.017 19.9723C103.653 21.1054 104.76 21.1864 105.662 21.1257C109.803 20.1746 112.488 16.3502 114.682 12.8697C115.953 10.2189 117.08 7.58834 117.08 4.65424C117.08 4.29001 117.06 3.8246 117.039 3.46036C119.028 2.42837 123.087 4.26977 123.087 4.26977C126.264 5.30176 133.009 10.4213 135.305 11.3926C136.412 10.1177 138.236 8.1954 139.282 7.22411L137.785 6.31352C135.407 4.87683 132.886 3.52107 130.405 2.16531C124.768 -0.869968 120.196 0.202497 117.859 1.03214C116.937 1.3559 116.096 1.6392 116.096 1.6392C114.374 -0.222441 111.525 -0.0403249 109.434 0.44532C101.91 2.57001 94.9196 7.77046 87.4371 16.7954C81.9226 23.8574 78.5196 29.9685 76.6951 35.9783C75.3011 40.0456 74.8706 45.9947 78.2941 49.5359C81.2051 52.5509 85.0591 51.8832 87.8061 50.8107C93.7101 47.9373 99.0196 41.7453 101.664 34.6226C102.238 32.5383 102.935 29.5435 101.849 27.2772ZM115.44 4.95777C114.661 13.8208 107.691 19.0212 105.949 19.4259C104.903 19.6283 103.12 19.1831 104.719 15.4598C107.056 10.4617 111.074 6.21235 115.358 4.02695C115.461 4.39118 115.461 4.634 115.44 4.95777Z" fill="#FFFBE3"></path><path d="M156.809 6.07071C153.058 8.17517 149.163 9.53092 144.468 9.06552C143.156 10.5224 141.885 12.0199 140.717 13.5577C147.318 15.217 154.329 11.5342 158.244 8.01329C162.365 4.47213 164.476 0.0203857 164.476 0.0203857C164.476 0.0203857 161.381 3.52107 156.809 6.07071Z" fill="#FFFBE3"></path><path d="M83.1321 17.9083L85.8996 13.4565H80.9796L78.2121 17.9083H83.1321Z" fill="#FFFBE3"></path><path d="M144.427 46.6423C143.894 47.0065 143.156 46.7232 143.423 45.9138C144.12 43.8498 146.867 39.6207 146.867 39.6207L154.534 26.2047H149.306C149.06 26.6094 148.527 27.5403 148.527 27.5403C148.281 27.1355 147.564 26.2452 147.256 26.0631C145.965 25.2537 144.099 25.6381 142.787 26.3666C137.15 29.6245 133.029 36.0593 129.77 41.0776C129.77 41.0776 126.346 46.6625 124.46 47.0672C122.984 47.1886 123.128 45.2056 123.189 44.7604C123.763 41.4418 125.096 38.2851 126.428 35.432C129.155 33.5703 132.271 31.1219 135.1 28.4508C141.229 22.6636 146.416 16.1074 147.174 14.6302C147.174 14.6302 146.354 14.7921 145.391 14.8326C140.676 21.328 131 30.7779 128.068 32.1943C129.36 29.1186 137.744 14.4076 144.878 7.36577L146.006 6.2933C147.748 4.61378 149.532 2.89379 150.946 2.6105C151.09 2.59026 151.295 2.6105 151.459 2.9545C151.52 4.24955 151.028 5.22084 150.475 6.31354L149.675 7.91212C149.675 7.91212 150.803 7.70976 151.52 7.46694C152.381 5.8886 153.324 4.1079 152.976 1.98321C152.853 1.29521 152.361 0.78933 151.705 0.667919C149.573 0.263215 147.256 1.82132 145.391 3.07591L145.309 3.11638C135.715 10.5427 127.617 21.2269 120.524 35.8367C120.012 36.2211 118.023 36.6866 117.695 36.464C118.392 35.0475 119.274 33.1252 119.725 31.0612C119.807 30.4744 119.868 29.8673 119.868 29.2602C119.868 27.9854 119.561 26.7915 118.392 25.9619C117.039 25.2941 115.358 25.5977 114.231 26.1036C109.167 28.1675 105.375 33.3073 102.648 37.5162C101.172 40.1872 99.7166 43.0606 99.3066 46.359C99.0196 48.9288 99.5936 50.5881 101.09 51.4178C102.607 52.1867 104.534 51.3975 105.293 50.9928C110.418 48.3218 114.005 42.9797 116.834 38.103C116.937 38.0828 118.495 38.0423 119.663 37.7388C119.684 37.7388 119.684 37.7388 119.704 37.759C119.643 37.9816 119.028 39.7623 119.028 39.7623C117.244 44.9425 116.404 48.4634 118.105 50.5679C120.524 53.5222 124.522 50.4667 127.781 46.4399C127.084 51.2761 129.626 52.0248 131.553 51.6606C133.767 51.0738 136.248 48.7265 137.396 47.5326C137.027 48.9491 137.129 51.4582 139.138 51.7011C140.532 51.9439 141.557 51.2154 142.746 50.5679C147.051 48.2611 152.197 40.5515 153.529 38.3256H151.787C149.88 41.1788 147.482 44.8818 144.427 46.6423ZM105.846 46.1364C105.58 45.7317 105.477 45.3067 105.477 44.8211C105.416 41.9072 108.593 36.727 110.828 33.8941C111.771 35.9176 113.882 37.2127 115.174 37.759C113.575 41.2597 108.122 48.7467 105.846 46.1364ZM116.055 36.2009C115.912 36.3021 113.226 35.4117 112.714 32.9633C112.283 30.8588 113.739 29.2198 115.153 28.3901C115.768 27.9247 116.691 27.7628 117.347 27.9854C117.962 28.4104 118.146 29.1388 118.146 29.9482C118.146 30.4339 118.085 30.9398 118.023 31.4052C118.023 31.4052 118.003 31.4861 118.003 31.5063C117.572 33.1454 116.896 34.7642 116.055 36.2009ZM137.498 45.2056L136.986 45.6507C136.268 46.278 135.53 46.966 134.628 46.622C134.382 46.5411 134.198 46.2173 134.157 45.9543C134.116 44.1331 134.956 42.4536 135.756 40.7943L135.961 40.3694C138.277 36.5449 140.983 32.0527 144.94 28.9162C145.616 28.4508 146.334 28.0461 147.092 28.3497C147.277 28.5115 147.482 28.7948 147.482 29.0781C147.482 29.1591 147.4 29.4019 147.359 29.4828C146.252 31.2433 145.206 33.1049 144.181 34.8654C142.172 38.3863 140.102 42.0286 137.498 45.2056Z" fill="#FFFBE3"></path></g><defs><clipPath id="clip0_2_33"><rect width="164" height="53" fill="white" transform="translate(0.47612 3.05176e-05)"></rect></clipPath></defs></svg>