<svg xmlns="http://www.w3.org/2000/svg" viewBox="0 0 210 64" fill="currentColor" aria-label="Spotify" style="translate: none; rotate: none; scale: none; transform: translate(0px, -200%); opacity: 0; visibility: hidden;"><path fill="currentColor" d="M32.06.513C14.76.513.734 14.537.734 31.838c0 17.302 14.026 31.326 31.326 31.326S63.385 49.14 63.385 31.838c0-17.3-14.024-31.324-31.326-31.324V.513Zm14.365 45.18a1.951 1.951 0 0 1-2.684.649c-7.356-4.496-16.615-5.511-27.52-3.02a1.951 1.951 0 1 1-.868-3.806c11.933-2.728 22.168-1.554 30.425 3.491a1.952 1.952 0 0 1 .647 2.686Zm3.835-8.53a2.444 2.444 0 0 1-3.36.805c-8.418-5.175-21.255-6.674-31.215-3.65a2.446 2.446 0 0 1-3.048-1.627 2.446 2.446 0 0 1 1.63-3.047c11.376-3.451 25.518-1.78 35.188 4.163a2.441 2.441 0 0 1 .804 3.357Zm.329-8.88c-10.098-5.998-26.753-6.549-36.393-3.623a2.93 2.93 0 1 1-1.7-5.608c11.065-3.359 29.46-2.71 41.083 4.19a2.93 2.93 0 0 1-2.99 5.04ZM85.96 29.43c-5.408-1.29-6.371-2.195-6.371-4.097 0-1.797 1.692-3.006 4.208-3.006 2.439 0 4.857.918 7.392 2.809a.354.354 0 0 0 .502-.08l2.64-3.722a.355.355 0 0 0-.067-.482c-3.017-2.422-6.415-3.599-10.387-3.599-5.84 0-9.92 3.505-9.92 8.52 0 5.376 3.52 7.28 9.6 8.75 5.176 1.192 6.05 2.191 6.05 3.977 0 1.978-1.767 3.208-4.61 3.208-3.156 0-5.732-1.064-8.612-3.558a.37.37 0 0 0-.26-.085.351.351 0 0 0-.243.125l-2.962 3.524a.351.351 0 0 0 .036.491c3.351 2.992 7.474 4.573 11.922 4.573 6.293 0 10.36-3.439 10.36-8.76.01-4.493-2.679-6.98-9.266-8.583l-.012-.005Zm23.514-5.334c-2.727 0-4.965 1.074-6.81 3.276v-2.478a.354.354 0 0 0-.354-.355h-4.843a.355.355 0 0 0-.353.355v27.532c0 .196.158.355.353.355h4.843c.196 0 .354-.16.354-.355v-8.69c1.846 2.07 4.083 3.082 6.81 3.082 5.068 0 10.199-3.902 10.199-11.36.008-7.46-5.125-11.362-10.193-11.362h-.006Zm4.568 11.362c0 3.798-2.34 6.448-5.69 6.448-3.311 0-5.809-2.77-5.809-6.448 0-3.677 2.498-6.448 5.809-6.448 3.296 0 5.69 2.711 5.69 6.448Zm18.781-11.362c-6.527 0-11.64 5.026-11.64 11.444 0 6.347 5.078 11.32 11.56 11.32 6.551 0 11.68-5.009 11.68-11.402 0-6.37-5.095-11.361-11.6-11.361v-.001Zm0 17.848c-3.471 0-6.089-2.79-6.089-6.488 0-3.714 2.527-6.409 6.009-6.409 3.495 0 6.129 2.79 6.129 6.49 0 3.714-2.543 6.407-6.048 6.407h-.001Zm25.538-17.405h-5.329v-5.449a.354.354 0 0 0-.354-.354h-4.842a.355.355 0 0 0-.355.354v5.449h-2.329a.354.354 0 0 0-.353.355v4.162c0 .195.158.355.353.355h2.329v10.77c0 4.352 2.166 6.559 6.438 6.559 1.737 0 3.179-.359 4.537-1.13a.354.354 0 0 0 .179-.306V41.34a.354.354 0 0 0-.514-.318 6.098 6.098 0 0 1-2.842.686c-1.554 0-2.247-.705-2.247-2.287V29.415h5.329c.195 0 .353-.16.353-.355v-4.162a.344.344 0 0 0-.348-.355l-.005-.002Zm18.569.021v-.669c0-1.969.754-2.847 2.447-2.847 1.01 0 1.821.2 2.729.504a.355.355 0 0 0 .466-.337V17.13c0-.156-.1-.294-.251-.34-.959-.285-2.187-.578-4.025-.578-4.473 0-6.838 2.519-6.838 7.282v1.025h-2.326a.356.356 0 0 0-.356.355v4.183c0 .195.16.355.356.355h2.326v16.612c0 .196.158.355.354.355h4.843c.195 0 .355-.16.355-.355v-16.61h4.521l6.927 16.607c-.786 1.745-1.56 2.092-2.615 2.092-.853 0-1.752-.255-2.671-.757a.363.363 0 0 0-.282-.027.357.357 0 0 0-.209.191l-1.642 3.601a.352.352 0 0 0 .153.459c1.714.928 3.26 1.324 5.172 1.324 3.576 0 5.553-1.666 7.295-6.147l8.402-21.711a.355.355 0 0 0-.329-.484h-5.041a.356.356 0 0 0-.336.238l-5.165 14.753-5.657-14.762a.353.353 0 0 0-.33-.229h-8.275.002Zm-10.766-.021h-4.843a.355.355 0 0 0-.355.355v21.129c0 .196.159.355.355.355h4.843c.195 0 .355-.16.355-.355V24.896a.353.353 0 0 0-.356-.355l.001-.001Zm-2.394-9.62a3.474 3.474 0 1 0 3.473 3.471 3.472 3.472 0 0 0-3.471-3.472h-.002Zm42.426 16.413a3.395 3.395 0 0 1-3.408-3.408 3.426 3.426 0 0 1 3.426-3.426 3.395 3.395 0 0 1 3.409 3.406 3.428 3.428 0 0 1-3.427 3.428Zm.019-6.495c-1.746 0-3.066 1.387-3.066 3.087 0 1.698 1.311 3.068 3.049 3.068 1.745 0 3.067-1.387 3.067-3.088 0-1.698-1.313-3.067-3.048-3.067h-.002Zm.756 3.418.964 1.35h-.813l-.868-1.239h-.746v1.238h-.681v-3.577h1.596c.831 0 1.378.425 1.378 1.141.003.587-.337.945-.827 1.087h-.003Zm-.576-1.614h-.888v1.131h.888c.443 0 .707-.216.707-.566 0-.368-.266-.565-.707-.565Z"></path></svg>