<svg xmlns="http://www.w3.org/2000/svg" viewBox="0 0 143 56" fill="currentColor" aria-label="YouTube" style="translate: none; rotate: none; scale: none; transform: translate(0px, 0px); opacity: 1; visibility: inherit;"><path fill="currentColor" fill-rule="evenodd" d="M128.815 55.411c7.759 0 14.05-6.28 14.05-14.025l-.001-27.096c0-7.745-6.291-14.025-14.05-14.025H73.212c-7.759 0-14.05 6.28-14.05 14.025v27.096c0 7.745 6.291 14.025 14.05 14.025h55.603ZM73.123 14.97v29.28h5.03v-29.28h5.798V9.178h-16.63v5.791h5.802Zm26.553 29.28V17.91h-4.727v16.823c0 1.534-.089 2.624-.261 3.279-.315 1.14-.944 1.708-1.887 1.708-.873 0-1.456-.525-1.747-1.572-.163-.608-.244-1.617-.244-3.029V17.911h-4.538V38.6c0 4.233 1.51 6.35 4.529 6.35 1.874 0 3.295-1.105 4.266-3.317v2.616h4.609Zm4.053-35.071v35.07l4.468-.002v-2.754c.76 2.305 2.134 3.457 4.123 3.457 2.385 0 3.964-1.654 4.736-4.96.409-1.761.613-4.689.613-8.784 0-4.218-.186-7.183-.563-8.898-.736-3.398-2.3-5.097-4.689-5.097-1.87 0-3.2.976-3.987 2.93V9.178h-4.701Zm4.651 17.2c.294-2.701 1.083-4.052 2.367-4.052 1.156 0 1.856 1.206 2.104 3.62.047.424.072 2.164.072 5.213 0 2.946-.029 4.666-.089 5.167-.247 2.399-.94 3.598-2.084 3.598-1.227 0-1.993-.98-2.299-2.937-.106-.638-.159-2.239-.159-4.803 0-3.325.028-5.26.088-5.806Zm26.182 8.833h-4.418c0 3.441-.791 5.162-2.373 5.162-1.063 0-1.765-.858-2.105-2.575-.165-.835-.246-2.233-.246-4.193 0-.833.019-1.395.053-1.685h9.228v-2c0-4.882-.466-8.124-1.403-9.73-1.158-1.986-2.986-2.979-5.489-2.979-2.598 0-4.479.919-5.649 2.754-.716 1.122-1.176 2.76-1.388 4.914-.105 1.062-.158 2.843-.158 5.346 0 3.112.053 5.228.158 6.352.237 2.562.78 4.51 1.635 5.847 1.075 1.683 2.835 2.526 5.28 2.526 2.364 0 4.105-.695 5.228-2.08 1.123-1.39 1.684-3.6 1.684-6.635 0-.12-.005-.292-.019-.512-.012-.22-.018-.39-.018-.512Zm-4.576-7.47h-4.552c0-.242-.007-.492-.021-.75l-.024-.363c-.072-1.605.105-2.84.526-3.703.35-.696.942-1.045 1.772-1.045.993 0 1.655.508 1.981 1.522.212.636.318 1.711.318 3.226v1.113Z" clip-rule="evenodd"></path><path fill="currentColor" d="M7.948 44.447V29.494L.821 9.178h5.611l4.11 13.268L14.6 9.178h5.451l-6.999 20.315v14.954H7.948Zm13.85-13.23c0-4.562.347-7.796 1.041-9.706 1.034-2.837 3.08-4.257 6.137-4.257 3.054 0 5.108 1.42 6.154 4.257.694 1.892 1.04 5.127 1.04 9.706 0 4.575-.346 7.81-1.04 9.702-1.046 2.822-3.099 4.234-6.155 4.234-3.057 0-5.102-1.419-6.136-4.257-.694-1.89-1.04-5.119-1.04-9.68Zm4.846.342c0 3.28.018 5.062.053 5.352.245 2.363.993 3.545 2.243 3.545 1.252 0 2.017-1.014 2.296-3.042.059-.443.088-2.096.088-4.963v-2.585c0-2.684-.035-4.3-.104-4.849-.294-2.012-1.042-3.019-2.244-3.019-1.17 0-1.9.886-2.194 2.655-.092.563-.139 2.05-.139 4.459l.001 2.447Zm26.47-13.598v26.486H48.48v-2.632c-.978 2.225-2.409 3.337-4.29 3.337-3.038 0-4.556-2.129-4.556-6.385V17.96h4.564v17.306c0 1.422.082 2.435.244 3.044.293 1.054.88 1.583 1.757 1.583.948 0 1.582-.573 1.898-1.718.173-.657.263-1.755.263-3.295V17.96h4.754Z"></path></svg>