<svg xmlns="http://www.w3.org/2000/svg" viewBox="0 0 108 42" fill="none" aria-label="Intel" style="translate: none; rotate: none; scale: none; transform: translate(0px, 0px); opacity: 1; visibility: inherit;"><path fill="#fff" d="M7.783 41.01V13.123H.453V41.01h7.33Zm48.723.276v-6.834c-1.075 0-1.984-.055-2.646-.165-.771-.11-1.35-.386-1.736-.772-.386-.386-.634-.937-.772-1.654-.11-.689-.165-1.598-.165-2.7v-9.756h5.319v-6.283h-5.319V2.236H43.83v26.98c0 2.287.193 4.216.579 5.76.386 1.515 1.047 2.755 1.956 3.692.91.937 2.122 1.599 3.583 2.012 1.488.413 3.362.606 5.594.606h.965Zm42.109-.275V.087h-7.358V41.01h7.358ZM36.747 15.85c-2.04-2.206-4.906-3.308-8.544-3.308-1.763 0-3.362.358-4.822 1.075-1.433.716-2.674 1.708-3.638 2.976l-.413.524v-3.996h-7.248V41.01h7.303V26.157v1.02-.497c.082-2.617.716-4.547 1.929-5.787 1.295-1.323 2.866-1.984 4.657-1.984 2.122 0 3.748.662 4.823 1.93 1.047 1.267 1.598 3.058 1.598 5.346v14.798h7.413V25.165c.028-3.969-1.02-7.11-3.059-9.315Zm50.707 11.16a15.36 15.36 0 0 0-1.047-5.65 15.124 15.124 0 0 0-2.95-4.602c-1.267-1.322-2.782-2.342-4.546-3.086-1.764-.744-3.72-1.102-5.843-1.102-2.011 0-3.913.386-5.677 1.13-1.763.771-3.307 1.79-4.602 3.086a14.376 14.376 0 0 0-3.086 4.602c-.772 1.764-1.13 3.666-1.13 5.677 0 2.012.358 3.914 1.075 5.677a14.163 14.163 0 0 0 3.003 4.603c1.268 1.295 2.839 2.342 4.658 3.086 1.819.772 3.83 1.158 5.98 1.158 6.228 0 10.086-2.839 12.401-5.485L80.4 32.082c-1.102 1.323-3.748 3.114-7.055 3.114-2.067 0-3.775-.468-5.07-1.433-1.296-.937-2.178-2.26-2.646-3.886l-.083-.248h21.909v-2.618ZM65.6 24.448c0-2.039 2.343-5.594 7.386-5.622 5.043 0 7.413 3.555 7.413 5.595l-14.799.027Z"></path><path fill="#FFFCE1" d="M7.783 41.01V13.123H.453V41.01h7.33Zm48.723.276v-6.834c-1.075 0-1.984-.055-2.646-.165-.771-.11-1.35-.386-1.736-.772-.386-.386-.634-.937-.772-1.654-.11-.689-.165-1.598-.165-2.7v-9.756h5.319v-6.283h-5.319V2.236H43.83v26.98c0 2.287.193 4.216.579 5.76.386 1.515 1.047 2.755 1.956 3.692.91.937 2.122 1.599 3.583 2.012 1.488.413 3.362.606 5.594.606h.965Zm42.109-.275V.087h-7.358V41.01h7.358ZM36.747 15.85c-2.04-2.206-4.906-3.308-8.544-3.308-1.763 0-3.362.358-4.822 1.075-1.433.716-2.674 1.708-3.638 2.976l-.413.524v-3.996h-7.248V41.01h7.303V26.157v1.02-.497c.082-2.617.716-4.547 1.929-5.787 1.295-1.323 2.866-1.984 4.657-1.984 2.122 0 3.748.662 4.823 1.93 1.047 1.267 1.598 3.058 1.598 5.346v14.798h7.413V25.165c.028-3.969-1.02-7.11-3.059-9.315Zm50.707 11.16a15.36 15.36 0 0 0-1.047-5.65 15.124 15.124 0 0 0-2.95-4.602c-1.267-1.322-2.782-2.342-4.546-3.086-1.764-.744-3.72-1.102-5.843-1.102-2.011 0-3.913.386-5.677 1.13-1.763.771-3.307 1.79-4.602 3.086a14.376 14.376 0 0 0-3.086 4.602c-.772 1.764-1.13 3.666-1.13 5.677 0 2.012.358 3.914 1.075 5.677a14.163 14.163 0 0 0 3.003 4.603c1.268 1.295 2.839 2.342 4.658 3.086 1.819.772 3.83 1.158 5.98 1.158 6.228 0 10.086-2.839 12.401-5.485L80.4 32.082c-1.102 1.323-3.748 3.114-7.055 3.114-2.067 0-3.775-.468-5.07-1.433-1.296-.937-2.178-2.26-2.646-3.886l-.083-.248h21.909v-2.618ZM65.6 24.448c0-2.039 2.343-5.594 7.386-5.622 5.043 0 7.413 3.555 7.413 5.595l-14.799.027Z" style="mix-blend-mode:darken"></path><path fill="#fff" d="M106.992 37.373a2.59 2.59 0 0 0-.578-.854 2.736 2.736 0 0 0-1.902-.8c-.386 0-.716.083-1.047.221-.331.138-.606.33-.854.579a2.739 2.739 0 0 0-.799 1.901c0 .386.082.717.22 1.048.138.33.331.606.579.854a2.6 2.6 0 0 0 .854.579c.331.137.689.22 1.047.22.386 0 .717-.083 1.047-.22.331-.138.607-.331.855-.58a2.74 2.74 0 0 0 .799-1.901 2.74 2.74 0 0 0-.221-1.047Zm-.44 1.93a2.168 2.168 0 0 1-.469.716 2.161 2.161 0 0 1-.716.468 2.29 2.29 0 0 1-.882.166c-.303 0-.607-.056-.882-.166a2.155 2.155 0 0 1-.717-.468 2.15 2.15 0 0 1-.468-.717 2.29 2.29 0 0 1-.166-.882c0-.303.056-.606.166-.882.11-.275.275-.523.468-.716.193-.193.441-.358.717-.469.275-.11.551-.165.882-.165.303 0 .606.055.882.165.275.11.523.276.716.469.193.193.358.44.469.716.11.276.165.552.165.882.027.331-.055.607-.165.882Zm-1.544-.662a.854.854 0 0 0 .524-.248c.138-.138.22-.33.22-.607 0-.303-.082-.523-.275-.688-.166-.166-.469-.248-.827-.248h-1.213v3.114h.579v-1.268h.414l.771 1.268h.606l-.799-1.323Zm-.303-.441H104.016v-.882H104.705c.083 0 .166.028.248.055a.284.284 0 0 1 .166.138.558.558 0 0 1 .055.248c0 .11-.028.193-.055.248-.056.055-.111.11-.166.138a.797.797 0 0 1-.248.055Z"></path><path fill="#FFFCE1" d="M106.992 37.373a2.59 2.59 0 0 0-.578-.854 2.736 2.736 0 0 0-1.902-.8c-.386 0-.716.083-1.047.221-.331.138-.606.33-.854.579a2.739 2.739 0 0 0-.799 1.901c0 .386.082.717.22 1.048.138.33.331.606.579.854a2.6 2.6 0 0 0 .854.579c.331.137.689.22 1.047.22.386 0 .717-.083 1.047-.22.331-.138.607-.331.855-.58a2.74 2.74 0 0 0 .799-1.901 2.74 2.74 0 0 0-.221-1.047Zm-.44 1.93a2.168 2.168 0 0 1-.469.716 2.161 2.161 0 0 1-.716.468 2.29 2.29 0 0 1-.882.166c-.303 0-.607-.056-.882-.166a2.155 2.155 0 0 1-.717-.468 2.15 2.15 0 0 1-.468-.717 2.29 2.29 0 0 1-.166-.882c0-.303.056-.606.166-.882.11-.275.275-.523.468-.716.193-.193.441-.358.717-.469.275-.11.551-.165.882-.165.303 0 .606.055.882.165.275.11.523.276.716.469.193.193.358.44.469.716.11.276.165.552.165.882.027.331-.055.607-.165.882Zm-1.544-.662a.854.854 0 0 0 .524-.248c.138-.138.22-.33.22-.607 0-.303-.082-.523-.275-.688-.166-.166-.469-.248-.827-.248h-1.213v3.114h.579v-1.268h.414l.771 1.268h.606l-.799-1.323Zm-.303-.441H104.016v-.882H104.705c.083 0 .166.028.248.055a.284.284 0 0 1 .166.138.558.558 0 0 1 .055.248c0 .11-.028.193-.055.248-.056.055-.111.11-.166.138a.797.797 0 0 1-.248.055Z" style="mix-blend-mode:darken"></path><path fill="#fff" d="M7.975.666H.231V8.41h7.744V.666Z"></path><path fill="#FFFCE1" d="M7.975.666H.231V8.41h7.744V.666Z" style="mix-blend-mode:darken"></path></svg>