<svg viewBox="0 0 287 61" fill="none" xmlns="http://www.w3.org/2000/svg" aria-label="Microsoft" style="translate: none; rotate: none; scale: none; transform: translate(0px, 0px); opacity: 1; visibility: inherit;"><g clip-path="url(#clip0_2_95)"><path d="M119.252 12.2V48.8H112.898V20.0791H112.813L101.46 48.8H97.2242L85.6173 20.0791H85.5325V48.8H79.6867V12.2H88.8367L99.3423 39.3111H99.5117L110.61 12.2H119.252ZM124.505 14.9958C124.505 13.9791 124.844 13.1319 125.606 12.4541C126.369 11.7763 127.216 11.4375 128.233 11.4375C129.334 11.4375 130.266 11.7763 130.944 12.4541C131.621 13.1319 132.045 13.9791 132.045 14.9958C132.045 16.0125 131.706 16.8597 130.944 17.5375C130.181 18.2152 129.334 18.5541 128.233 18.5541C127.131 18.5541 126.284 18.2152 125.606 17.5375C124.928 16.775 124.505 15.9277 124.505 14.9958ZM131.367 22.5361V48.8H125.183V22.5361H131.367ZM150.091 44.3097C151.023 44.3097 152.039 44.1402 153.141 43.6319C154.242 43.2083 155.259 42.6152 156.191 41.9375V47.6986C155.174 48.2916 154.073 48.7152 152.802 48.9694C151.531 49.2236 150.176 49.393 148.651 49.393C144.753 49.393 141.619 48.2069 139.246 45.75C136.789 43.293 135.603 40.1583 135.603 36.4305C135.603 32.1944 136.874 28.7208 139.331 26.0097C141.788 23.2986 145.262 21.943 149.837 21.943C151.023 21.943 152.209 22.1125 153.31 22.3666C154.496 22.6208 155.428 23.0444 156.106 23.3833V29.3138C155.174 28.6361 154.158 28.043 153.226 27.7041C152.209 27.3652 151.192 27.1111 150.176 27.1111C147.719 27.1111 145.77 27.8736 144.245 29.4833C142.72 31.093 142.042 33.2111 142.042 35.9222C142.042 38.5486 142.805 40.6666 144.245 42.1069C145.685 43.5472 147.634 44.3097 150.091 44.3097ZM173.728 22.1125C174.237 22.1125 174.66 22.1125 175.084 22.1972C175.508 22.2819 175.846 22.3666 176.101 22.4513V28.7208C175.762 28.4666 175.338 28.2125 174.66 28.043C173.983 27.8736 173.305 27.7041 172.373 27.7041C170.848 27.7041 169.577 28.3819 168.56 29.6527C167.544 30.9236 166.951 32.8722 166.951 35.5833V48.8H160.766V22.5361H166.951V26.6875H167.035C167.628 25.2472 168.476 24.1458 169.577 23.2986C170.763 22.5361 172.119 22.1125 173.728 22.1125ZM176.439 36.0916C176.439 31.7708 177.71 28.2972 180.083 25.7555C182.539 23.2138 185.928 21.943 190.249 21.943C194.316 21.943 197.535 23.1291 199.823 25.5861C202.11 28.043 203.296 31.3472 203.296 35.4986C203.296 39.7347 202.026 43.1236 199.653 45.6652C197.196 48.2069 193.892 49.4777 189.656 49.4777C185.589 49.4777 182.37 48.2916 179.998 45.9194C177.626 43.4625 176.439 40.1583 176.439 36.0916ZM182.878 35.8375C182.878 38.5486 183.471 40.6666 184.742 42.1069C186.013 43.5472 187.792 44.3097 190.08 44.3097C192.283 44.3097 194.062 43.6319 195.248 42.1069C196.434 40.6666 197.027 38.5486 197.027 35.668C197.027 32.8722 196.434 30.7541 195.248 29.2291C194.062 27.7888 192.283 27.0263 190.164 27.0263C187.877 27.0263 186.183 27.7888 184.912 29.3138C183.471 30.9236 182.878 33.0416 182.878 35.8375ZM212.531 29.4833C212.531 30.3305 212.785 31.093 213.378 31.6013C213.971 32.1097 215.158 32.7027 217.106 33.4652C219.563 34.4819 221.342 35.5833 222.274 36.7694C223.291 38.0402 223.799 39.4805 223.799 41.2597C223.799 43.7166 222.867 45.6652 220.919 47.1902C219.055 48.7152 216.428 49.393 213.209 49.393C212.108 49.393 210.921 49.2236 209.566 48.9694C208.21 48.7152 207.109 48.3763 206.177 47.9527V41.8527C207.278 42.6152 208.549 43.293 209.82 43.7166C211.091 44.1402 212.277 44.3944 213.378 44.3944C214.734 44.3944 215.835 44.225 216.428 43.8013C217.106 43.3777 217.445 42.7847 217.445 41.8527C217.445 41.0055 217.106 40.3277 216.428 39.65C215.751 39.0569 214.395 38.3791 212.531 37.6166C210.244 36.6847 208.634 35.5833 207.702 34.3972C206.77 33.2111 206.262 31.6861 206.262 29.8222C206.262 27.45 207.194 25.5013 209.058 23.9763C210.921 22.4513 213.378 21.6888 216.344 21.6888C217.276 21.6888 218.292 21.7736 219.394 22.0277C220.495 22.2819 221.512 22.5361 222.274 22.7902V28.8055C221.427 28.2972 220.495 27.7888 219.394 27.3652C218.292 26.9416 217.191 26.7722 216.174 26.7722C214.988 26.7722 214.056 27.0263 213.463 27.45C212.87 28.043 212.531 28.6361 212.531 29.4833ZM226.426 36.0916C226.426 31.7708 227.696 28.2972 230.069 25.7555C232.526 23.2138 235.914 21.943 240.235 21.943C244.302 21.943 247.521 23.1291 249.809 25.5861C252.096 28.043 253.283 31.3472 253.283 35.4986C253.283 39.7347 252.012 43.1236 249.639 45.6652C247.183 48.2069 243.878 49.4777 239.642 49.4777C235.576 49.4777 232.356 48.2916 229.984 45.9194C227.696 43.4625 226.426 40.1583 226.426 36.0916ZM232.864 35.8375C232.864 38.5486 233.458 40.6666 234.728 42.1069C235.999 43.5472 237.778 44.3097 240.066 44.3097C242.269 44.3097 244.048 43.6319 245.234 42.1069C246.42 40.6666 247.013 38.5486 247.013 35.668C247.013 32.8722 246.42 30.7541 245.234 29.2291C244.048 27.7888 242.269 27.0263 240.151 27.0263C237.863 27.0263 236.169 27.7888 234.898 29.3138C233.542 30.9236 232.864 33.0416 232.864 35.8375ZM273.87 27.6194H264.635V48.8H258.366V27.6194H253.96V22.5361H258.366V18.893C258.366 16.1819 259.298 13.8944 261.077 12.1152C262.856 10.3361 265.144 9.48885 267.939 9.48885C268.702 9.48885 269.38 9.57357 269.973 9.57357C270.566 9.57357 271.074 9.74301 271.498 9.91246V15.25C271.328 15.1652 270.905 14.9958 270.396 14.8263C269.888 14.6569 269.295 14.5722 268.617 14.5722C267.346 14.5722 266.33 14.9958 265.652 15.7583C264.974 16.5208 264.635 17.7916 264.635 19.3166V22.4513H273.87V16.5208L280.055 14.6569V22.4513H286.324V27.5347H280.055V39.8194C280.055 41.4291 280.394 42.5305 280.902 43.2083C281.495 43.8861 282.427 44.225 283.698 44.225C284.037 44.225 284.46 44.1402 284.969 43.9708C285.477 43.8013 285.901 43.6319 286.239 43.3777V48.4611C285.816 48.7152 285.223 48.8847 284.291 49.0541C283.359 49.2236 282.512 49.3083 281.58 49.3083C278.953 49.3083 277.005 48.6305 275.734 47.275C274.463 45.9194 273.785 43.8013 273.785 41.0055L273.87 27.6194Z" fill="#FFFBE3"></path><path d="M29.277 0H0.302002V28.975H29.277V0Z" fill="#FFFBE3"></path><path d="M61.302 0H32.327V28.975H61.302V0Z" fill="#FFFBE3"></path><path d="M29.277 32.025H0.302002V61H29.277V32.025Z" fill="#FFFBE3"></path><path d="M61.302 32.025H32.327V61H61.302V32.025Z" fill="#FFFBE3"></path></g><defs><clipPath id="clip0_2_95"><rect width="286.022" height="61" fill="white" transform="translate(0.302002)"></rect></clipPath></defs></svg>