<svg viewBox="0 0 164 61" fill="currentColor" xmlns="http://www.w3.org/2000/svg" aria-label="Ford" style="translate: none; rotate: none; scale: none; transform: translate(0px, 0px); opacity: 1; visibility: inherit;"><path d="M73.7513 23.9372C73.5583 23.165 73.9444 22.1998 74.7165 21.6207C75.1026 21.2346 75.6817 21.2346 75.8747 21.4277C76.2608 21.8137 76.0678 22.5859 75.6817 22.972C75.2956 23.5511 74.7165 24.1302 73.9443 24.1302C73.9443 24.3232 73.7513 24.3232 73.7513 23.9372Z" fill="currentColor"></path><path d="M82.0522 5.01917C40.356 5.01917 6.57434 16.6014 6.57434 30.6932C6.57434 44.785 40.356 56.3672 82.0522 56.3672C123.748 56.3672 157.53 44.785 157.53 30.6932C157.53 16.6014 123.748 5.01917 82.0522 5.01917ZM43.2515 47.4875C38.8117 47.4875 34.9509 44.785 34.3718 39.959C34.1788 37.2565 34.7579 34.94 36.3022 33.0097C37.6534 31.2723 39.7769 29.9211 41.7072 29.535C42.2864 29.535 43.2515 29.535 43.4446 29.921C44.0237 30.5002 43.8307 31.2723 43.2515 31.4654C41.7072 32.2375 39.9699 33.3957 39.1977 35.1331C38.4256 36.4843 38.4256 38.2217 39.3908 39.959C41.1281 42.6615 46.1471 42.6616 50.78 38.4147C51.9382 37.4495 52.9034 36.2913 54.0617 35.1331C56.1851 32.8166 56.7642 32.0445 59.4667 28.1837C59.4667 28.1837 59.4667 28.1837 59.4667 27.9907C59.4667 27.7976 59.4667 27.9907 59.2737 27.9907C57.5364 27.9907 55.799 28.5698 54.4478 29.728C54.0617 30.1141 53.2895 29.9211 53.0965 29.535C52.7104 29.1489 53.0965 28.3767 53.4826 27.9907C55.9921 26.2533 58.6946 25.8672 61.3971 25.4812C61.3971 25.4812 61.5901 25.4812 61.7832 25.2881C62.9414 23.7438 63.7136 22.5856 65.0648 21.0413C66.2231 19.497 67.9604 18.1457 69.1186 17.1806C70.856 15.6363 71.8212 15.2502 72.9794 14.6711C73.1724 14.478 72.9794 14.285 72.7864 14.285C66.6091 13.1268 60.4319 11.5824 54.2547 13.8989C50.0079 15.4432 48.2705 18.7249 49.0427 21.0413C49.6218 22.5856 51.7452 22.9717 53.6756 22.0065C55.2199 21.2344 56.7642 19.8831 57.9224 18.3388C58.5015 17.3736 59.6598 18.1457 59.0807 19.69C57.3433 23.9369 53.8686 27.2185 49.8148 27.2185C46.3401 27.4116 44.0237 24.709 44.0237 21.6204C44.0237 15.4432 50.9731 11.1964 58.3085 10.6173C67.1883 9.8451 75.4889 12.1616 84.3686 13.3198C91.125 14.092 97.4952 14.0919 104.252 12.5476C105.024 12.3546 105.603 12.9337 105.603 13.7059C105.603 14.8641 104.638 16.0223 102.514 17.1806C100.005 18.5318 97.3022 18.9179 94.5996 19.1109C87.8433 19.1109 81.6661 16.6014 75.2958 15.0571C75.2958 15.4432 75.2958 15.6362 75.1028 15.8293C71.6281 18.5318 68.3465 21.2344 66.2231 24.9021V25.0951C68.1534 25.0951 69.6977 24.9021 71.6281 24.9021C72.0142 24.9021 72.0142 24.9021 72.0142 24.516C71.8212 23.1647 72.2072 21.8134 73.3655 20.6552C74.5237 19.69 76.068 19.497 77.0332 20.2691C78.1914 21.0413 77.9984 22.5856 77.4193 23.7438C76.8401 24.9021 75.8749 25.4812 74.9098 25.8673C74.9098 25.8673 74.7167 25.8672 74.7167 26.0603C74.7167 26.4464 76.068 27.0255 76.261 27.2185C76.4541 27.4116 76.261 27.6046 76.068 27.9907C75.875 28.1837 75.6819 28.3767 75.4889 28.3767C75.2958 28.3767 75.1028 28.3768 74.9098 28.1837C74.3306 27.7976 73.5585 27.4116 72.9794 26.6394C72.7863 26.4464 72.7863 26.4464 72.4003 26.4464C70.4699 26.4464 67.5743 26.8324 65.4509 27.0255C65.0648 27.0255 64.8718 27.2185 64.8718 27.4115C61.5901 32.6236 58.3085 38.4147 54.4478 42.0824C50.2009 46.3293 46.9193 47.2945 43.2515 47.4875ZM116.606 44.3989C117.185 45.171 118.729 44.785 119.502 44.2059C122.011 42.4685 123.941 40.3451 125.872 38.4147C126.065 38.2217 126.258 38.2217 126.258 38.4147C126.644 38.6078 127.03 38.9938 127.223 39.3799C127.416 39.573 127.223 39.766 127.223 39.766C125.293 42.0824 123.169 44.3989 121.046 45.9432C117.764 48.4527 114.676 49.0318 113.131 47.4875C112.552 46.9084 112.166 45.9432 112.166 45.3641C112.166 44.978 111.973 44.978 111.78 45.1711C109.85 47.1014 106.568 49.0318 103.672 47.6805C101.163 46.5223 100.584 43.4337 101.163 40.9242C101.163 40.9242 101.163 40.5381 100.777 40.7312C100.198 41.1173 99.6186 41.5033 98.6534 41.8894C97.6882 42.2755 97.1091 42.4685 96.1439 42.4685C94.9857 42.4685 93.8275 41.8894 93.0553 40.7312C92.6693 40.1521 92.4762 39.1869 92.4762 38.4147C92.4762 38.4147 92.2832 38.2217 92.2832 38.4147C90.3528 41.5033 88.4224 44.5919 86.299 47.6805C86.299 47.8736 86.106 47.8736 85.9129 47.8736H81.8591C81.6661 47.8736 81.473 47.6805 81.6661 47.4875C82.4382 46.1362 86.299 40.5381 88.8085 35.7122C89.5806 34.3609 89.3876 33.7818 89.0015 33.3957C88.4224 33.0097 87.2642 33.5888 86.299 34.3609C83.7895 36.2913 81.6661 39.3799 80.5079 40.7312C79.9288 41.5033 79.1566 42.6616 77.6123 44.5919C74.9098 47.4875 71.4351 49.2249 67.9604 48.0666C66.03 47.4875 64.6787 45.9432 64.2927 44.2059C64.2927 43.8198 64.0996 43.8198 63.9066 44.0128C63.3275 44.5919 62.1693 45.7502 61.3971 46.3293C61.2041 46.3293 61.011 46.5223 60.818 46.5223C60.6249 46.5223 59.8528 45.3641 59.8528 45.1711C59.6598 44.978 59.8528 44.785 59.8528 44.5919C61.2041 43.4337 61.9762 42.6616 62.5553 42.0824C62.9414 41.5033 63.3275 40.9242 63.7136 39.959C64.4857 37.8356 66.4161 34.1679 70.0838 32.0445C71.4351 31.2723 72.9794 30.6932 74.5237 30.5002C75.1028 30.5002 75.6819 30.5002 76.068 31.0793C76.068 31.2723 76.261 31.8514 76.4541 32.2375C76.4541 32.4305 76.4541 32.6236 76.261 32.6236C74.1376 33.3957 71.8211 34.747 70.4699 36.6774C68.7325 38.9938 68.3465 41.6964 69.5047 43.4337C70.2768 44.5919 71.6281 44.785 72.9794 44.3989C74.9098 43.8198 76.6471 41.8894 77.4193 39.959C78.3844 37.6426 78.5775 35.1331 77.8053 32.8166C77.6123 32.4305 77.8053 32.0445 77.9984 31.8514C78.5775 31.4653 79.3496 31.0793 79.5427 30.8862C79.9288 30.6932 80.5079 30.8862 80.8939 31.2723C81.6661 32.4305 82.0522 33.7818 82.0522 35.3261C82.0522 35.7122 82.2452 35.7122 82.4383 35.5192C83.7895 34.1679 84.9477 32.6236 86.299 31.6584C87.4572 30.6932 89.1946 29.921 90.7389 29.921C92.6692 29.921 93.6344 31.2723 93.6344 33.5888C93.6344 33.7818 93.8275 33.7818 94.0205 33.5888C94.5996 32.8166 94.9857 32.2375 95.5648 31.8514C96.9161 30.6932 98.2674 30.3071 99.8117 30.3071C101.549 30.5002 102.9 32.0445 102.707 33.9749C102.514 35.1331 101.935 36.0983 100.777 36.6774C99.8117 37.0634 98.8465 37.0635 98.0743 36.2913C97.4952 35.7122 97.3022 34.94 97.4952 34.1679C97.4952 33.9748 97.3022 33.7818 97.1091 33.9749C95.3718 35.7122 95.1788 38.0286 96.337 39.1869C97.6882 40.3451 99.4256 39.5729 100.777 38.6078C103.286 37.0634 105.217 34.747 107.533 33.0097C109.077 31.8514 110.622 30.8863 112.552 30.6932C113.517 30.5002 114.676 30.6932 115.641 31.0793C116.992 31.6584 117.957 32.8166 117.957 33.7818C117.957 34.1679 118.15 34.1679 118.343 33.7818C119.502 32.0445 125.1 23.5508 125.679 22.5856C125.872 22.1995 126.065 22.1995 126.258 22.1995H130.312C130.505 22.1995 130.698 22.3926 130.505 22.5856C129.926 23.5508 117.957 41.8894 117.185 43.6267C116.413 43.6267 116.413 44.0128 116.606 44.3989ZM113.903 33.0097C112.552 32.2375 110.429 33.5888 108.305 35.9052C106.761 37.8356 105.796 39.959 105.796 41.8894C105.796 42.6615 105.989 43.4337 106.761 43.8198C108.112 44.5919 109.85 43.4337 111.008 42.4685C111.78 41.8894 112.552 41.1173 113.131 40.3451C113.71 39.3799 114.29 38.8008 114.676 37.6426C114.676 37.4495 114.676 37.4495 114.676 37.4495C114.483 37.4495 114.29 37.2565 114.29 37.0634V36.8704C114.869 35.5192 115.448 33.7818 113.903 33.0097Z" fill="currentColor"></path><path d="M82.0518 0C36.6878 0 0.589752 13.5127 0.589752 30.5C0.589752 47.4873 37.267 61 82.0518 61C127.03 61 163.707 47.2943 163.707 30.5C163.707 13.7057 127.03 0 82.0518 0ZM82.0518 58.4905C38.8113 58.4905 3.87139 45.943 3.87139 30.5C3.87139 15.057 38.8113 2.5095 82.0518 2.5095C125.292 2.5095 160.232 15.057 160.232 30.5C160.232 45.943 125.292 58.4905 82.0518 58.4905Z" fill="currentColor"></path></svg>