<svg viewBox="0 0 160 55" fill="none" xmlns="http://www.w3.org/2000/svg" aria-label="Google" style="translate: none; rotate: none; scale: none; transform: translate(200%, 0px); opacity: 0; visibility: hidden;"><g clip-path="url(#clip0_2_84)"><path d="M68.3119 28.2044C68.3119 35.7174 62.4424 41.2348 55.2815 41.2348C48.1206 41.2348 42.1337 35.7174 42.1337 28.2044C42.1337 20.6326 48.0033 15.1739 55.1641 15.1739C62.325 15.1739 68.3119 20.6326 68.3119 28.2044ZM62.5598 28.2044C62.5598 23.5087 59.1554 20.3391 55.2228 20.3391C51.2902 20.3391 47.8859 23.5087 47.8859 28.2044C47.8859 32.8413 51.2902 36.0696 55.2228 36.0696C59.1554 36.0696 62.5598 32.8413 62.5598 28.2044Z" fill="#FFFBE3"></path><path d="M96.4859 28.2044C96.4859 35.7174 90.6163 41.2348 83.4554 41.2348C76.2946 41.2348 70.425 35.7174 70.425 28.2044C70.425 20.6913 76.2946 15.1739 83.4554 15.1739C90.6163 15.1739 96.4859 20.6326 96.4859 28.2044ZM90.7337 28.2044C90.7337 23.5087 87.3293 20.3391 83.3967 20.3391C79.4641 20.3391 76.0598 23.5087 76.0598 28.2044C76.0598 32.8413 79.4641 36.0696 83.3967 36.0696C87.3293 36.0696 90.7337 32.8413 90.7337 28.2044Z" fill="#FFFBE3"></path><path d="M123.486 15.937V39.2978C123.486 48.9239 117.792 52.8565 111.101 52.8565C104.762 52.8565 101.005 48.6304 99.538 45.1674L104.527 43.113C105.408 45.2261 107.579 47.75 111.101 47.75C115.386 47.75 118.027 45.1087 118.027 40.1196V38.2413H117.851C116.56 39.8261 114.095 41.1761 110.984 41.1761C104.468 41.1761 98.5402 35.4826 98.5402 28.2044C98.5402 20.8674 104.527 15.1152 110.984 15.1152C114.095 15.1152 116.56 16.5239 117.851 18.05H118.027V15.937H123.486ZM118.438 28.263C118.438 23.6848 115.386 20.3391 111.512 20.3391C107.579 20.3391 104.234 23.6848 104.234 28.263C104.234 32.7826 107.521 36.1283 111.512 36.1283C115.386 36.0696 118.438 32.7826 118.438 28.263Z" fill="#FFFBE3"></path><path d="M132.408 2.26086V40.413H126.832V2.26086H132.408Z" fill="#FFFBE3"></path><path d="M154.125 32.4891L158.586 35.4239C157.177 37.537 153.714 41.1761 147.727 41.1761C140.332 41.1761 134.814 35.4826 134.814 28.1457C134.814 20.4565 140.39 15.1739 147.082 15.1739C153.832 15.1739 157.118 20.5739 158.234 23.45L158.821 24.9174L141.447 32.137C142.797 34.7783 144.851 36.0696 147.786 36.0696C150.662 36.0696 152.658 34.6609 154.125 32.4891ZM140.449 27.7935L152.071 22.9804C151.425 21.337 149.488 20.2217 147.258 20.2217C144.382 20.2217 140.332 22.7457 140.449 27.7935Z" fill="#FFFBE3"></path><path d="M21.0619 24.8V19.2826H39.6685C39.8446 20.2217 39.9619 21.3957 39.9619 22.6283C39.9619 26.7957 38.8467 31.9022 35.1489 35.5413C31.6272 39.2391 27.0489 41.2348 21.0619 41.2348C9.90977 41.2348 0.577164 32.137 0.577164 21.0435C0.577164 9.95 9.96847 0.852173 21.0619 0.852173C27.225 0.852173 31.6272 3.25869 34.9141 6.42826L31.0402 10.3022C28.6924 8.07174 25.4641 6.36956 21.0619 6.36956C12.9032 6.36956 6.56412 12.9435 6.56412 21.0435C6.56412 29.1435 12.9032 35.7174 21.0619 35.7174C26.3446 35.7174 29.338 33.6043 31.275 31.6674C32.8598 30.0826 33.8576 27.8522 34.2685 24.8H21.0619Z" fill="#FFFBE3"></path></g><defs><clipPath id="clip0_2_84"><rect width="159.652" height="54" fill="white" transform="translate(0.342377 0.5)"></rect></clipPath></defs></svg>