<svg xmlns="http://www.w3.org/2000/svg" fill="none"><title>Notifications</title><path fill="currentColor" fill-rule="evenodd" d="M16.183 8v3.196a3 3 0 0 0 .396 1.489l1.209 2.115H2.725l1.216-2.126a3 3 0 0 0 .395-1.489v-3.6c.014-.067.024-.135.031-.204C4.673 4.344 7.21 2 10.26 2c3.049 0 5.586 2.344 5.892 5.381.007.07.017.137.03.204V8Zm2.132 3.692a1 1 0 0 1-.132-.496V7.22a.02.02 0 0 0-.02-.02.02.02 0 0 1-.021-.019C17.736 3.148 14.362 0 10.26 0S2.784 3.148 2.377 7.181a.02.02 0 0 1-.02.019.02.02 0 0 0-.02.02v3.965a1 1 0 0 1-.133.496l-2.07 3.622A1 1 0 0 0 1 16.8h18.511a1 1 0 0 0 .868-1.497l-2.065-3.61ZM10.259 19c-1.189 0-2.17-.976-2.17-2.2h-2c0 2.31 1.858 4.2 4.17 4.2s4.17-1.89 4.17-4.2h-2c0 1.224-.98 2.2-2.17 2.2Z" clip-rule="evenodd"></path></svg>